<svg xmlns="http://www.w3.org/2000/svg" width="480" height="480" viewBox="0 0 480 480" role="img" aria-label="Original raster-style cheerful sun illustration">
  <rect width="480" height="480" fill="#f8fafc"/>
  <g opacity=".3" fill="#cbd5e1">
    <rect x="60" y="90" width="360" height="10"/>
    <rect x="60" y="126" width="360" height="10"/>
    <rect x="60" y="162" width="360" height="10"/>
    <rect x="60" y="198" width="360" height="10"/>
    <rect x="60" y="234" width="360" height="10"/>
    <rect x="60" y="270" width="360" height="10"/>
    <rect x="60" y="306" width="360" height="10"/>
    <rect x="60" y="342" width="360" height="10"/>
    <rect x="60" y="378" width="360" height="10"/>
  </g>
  <path fill="#f59e0b" d="m240 76 27 70 74-18-39 65 64 40-75 11 5 77-56-53-56 53 5-77-75-11 64-40-39-65 74 18z"/>
  <circle cx="240" cy="226" r="78" fill="#facc15"/>
  <circle cx="211" cy="211" r="12" fill="#111827"/>
  <circle cx="269" cy="211" r="12" fill="#111827"/>
  <path d="M204 246c20 27 52 27 72 0" fill="none" stroke="#111827" stroke-linecap="round" stroke-width="15"/>
  <g opacity=".28" fill="#92400e">
    <rect x="166" y="151" width="18" height="164"/>
    <rect x="291" y="151" width="14" height="164"/>
  </g>
</svg>
